<?xml version="1.0" encoding="UTF-8"?>
<svg width="2838px" height="600px" viewBox="0 0 2838 600" version="1.1" xmlns="http://www.w3.org/2000/svg" xmlns:xlink="http://www.w3.org/1999/xlink">
    <title>logo</title>
    <g id="logo" stroke="none" stroke-width="1" fill="none" fill-rule="evenodd">
        <path d="M300,1.70530257e-13 C465.683783,1.70530257e-13 600,134.312246 600,300.002558 C600,465.682638 465.683783,600 300,600 C226.715214,600 159.600593,573.692154 107.496973,530.045279 C136.541774,532.199227 161.365691,533.253178 161.365691,533.253178 C199.502021,532.51132 247.420571,545.823847 247.420571,545.823847 C286.544332,558.312655 350.896192,562.917296 350.896192,562.917296 C398.078005,565.956358 415.253168,522.979714 415.253168,522.979714 C419.039173,516.072753 417.146171,514.184851 417.146171,514.184851 C416.818732,513.765317 416.491294,513.356015 416.158739,512.946714 C416.568037,512.78811 416.982451,512.696017 417.391749,512.537413 C417.391749,512.537413 423.31122,502.514645 422.16007,491.330485 C422.16007,491.330485 421.008919,485.574685 416.655013,488.782584 C416.655013,488.782584 414.270853,498.31419 409.584392,505.799289 C407.60953,504.151851 405.557924,502.514645 403.337483,500.862091 C403.670038,500.785347 403.99236,500.703487 404.324914,500.53465 C404.324914,500.53465 416.158739,480.478883 413.943415,458.284516 C413.943415,458.284516 411.472279,446.783147 402.928185,453.11197 C402.928185,453.11197 397.25941,475.383081 386.407899,490.593743 C381.066562,487.795145 375.47453,485.247244 369.969473,482.868179 C370.296912,482.776087 370.629466,482.699343 371.038764,482.535622 C371.038764,482.535622 381.639579,464.449618 379.664717,444.39385 C379.664717,444.39385 377.449392,433.961781 369.723894,439.70735 C369.723894,439.70735 363.886283,462.561715 352.789195,476.201683 C348.680867,474.723082 344.818118,473.413318 341.451643,472.344018 C341.451643,471.197974 341.451643,470.046814 341.282808,468.808677 C341.282808,468.808677 339.967938,462.730552 335.450313,466.102172 C335.450313,466.102172 335.041015,467.657517 334.294046,470.128674 C329.285264,468.568213 326.159251,467.739377 326.159251,467.739377 C328.70713,462.484971 333.388475,450.97337 333.388475,437.988284 C333.388475,436.264102 333.311732,434.534803 333.148012,432.723645 C333.148012,432.723645 330.927571,422.291576 323.283933,428.037144 C323.283933,428.037144 317.942596,448.75291 307.827822,462.484971 C304.543207,461.574275 301.340451,460.591952 298.214438,459.604513 C298.214438,458.944514 298.132578,458.207772 298.132578,457.547773 C298.132578,457.547773 296.817709,451.382671 292.294967,454.759408 C292.294967,454.759408 291.967529,455.828707 291.476372,457.465913 C288.519194,456.56545 285.638761,455.659871 282.840186,454.759408 C285.638761,448.83477 291.476372,434.780384 289.910807,419.492978 C289.910807,419.492978 287.772226,408.973933 280.051844,414.729733 C280.051844,414.729733 274.874226,434.944105 265.010147,448.67105 C263.035285,448.011051 261.065539,447.274309 259.090677,446.61431 C260.241827,442.756645 261.065539,438.070144 260.569265,433.132946 C260.569265,433.132946 259.254396,426.978077 254.731654,430.344581 C254.731654,430.344581 253.089346,436.673403 249.96845,443.247806 C247.251735,442.255251 244.627113,441.278044 241.997374,440.208744 C244.381534,435.680847 251.610758,420.311581 249.88659,403.545573 C249.88659,403.545573 247.666149,393.031644 239.940652,398.777212 C239.940652,398.777212 234.763034,419.492978 224.653376,433.225039 C223.420366,432.723645 222.269216,432.232483 221.118065,431.746438 C222.596654,428.94784 226.710098,419.98414 225.71755,410.288813 C225.71755,410.288813 224.407797,404.123711 219.885056,407.490215 C219.885056,407.490215 216.846019,419.334374 211.090267,427.387378 C206.818221,425.489243 202.704777,423.60134 198.765285,421.713438 C201.062469,416.868333 205.74893,405.443708 204.51592,393.195365 C204.51592,393.195365 202.704777,384.651198 196.462984,389.327467 C196.462984,389.327467 192.676979,404.046967 185.447755,415.139035 C184.378464,414.566013 183.391033,414.069735 182.326858,413.496713 C183.969166,408.150214 185.202176,401.406973 184.460324,394.341409 C184.460324,394.341409 182.649181,385.879103 176.407388,390.565603 C176.407388,390.565603 174.350666,398.449771 170.406058,407.080914 C168.927469,406.185567 167.44888,405.356732 165.970292,404.533013 C166.543309,401.734415 166.788888,398.618608 166.461449,395.410708 C166.461449,395.410708 165.228439,389.578164 160.951276,392.780947 C160.951276,392.780947 160.132681,395.988847 158.567116,400.097209 C156.848065,399.10977 155.282501,398.04047 153.640193,397.058146 C156.106213,391.716763 159.968962,381.110742 158.817811,369.767977 C158.817811,369.767977 157.011784,361.218695 150.764875,365.905196 C150.764875,365.905196 147.557003,378.312143 141.47893,388.918165 C140.000341,387.848865 138.598496,386.779566 137.201767,385.797242 C138.516636,381.929344 139.585927,376.833542 139.007794,371.497276 C139.007794,371.497276 137.774784,365.664731 133.502737,368.862398 C133.502737,368.862398 132.187868,374.127037 129.558129,379.964698 C117.560585,370.259139 113.037843,364.262874 113.037843,364.262874 C77.2856729,343.710829 30.8457118,328.510399 30.8457118,328.510399 C19.82025,324.622036 9.74640585,320.743905 0.506506131,316.937402 C0.189300271,311.324857 1.70530257e-13,305.686731 1.70530257e-13,300.002558 C1.70530257e-13,277.767261 2.49160087,256.135683 7.07573716,235.286895 C38.1005167,231.920391 68.4397224,232.728761 95.6119856,235.547824 C95.3664069,246.639892 91.7492368,258.069632 91.7492368,258.069632 C94.0819582,264.128952 98.9875533,259.530441 99.5110721,259.0156 L99.556594,258.970095 C105.394205,251.408253 107.532786,242.372925 108.351382,237.026426 C113.201562,237.686424 118.051742,238.346422 122.738203,239.083165 C123.393079,251.167788 118.952197,265.217058 118.952197,265.217058 C121.423333,271.632857 126.764671,266.127753 126.764671,266.127753 C133.748316,257.000333 135.477599,245.570592 135.805038,241.385485 C143.857974,242.782226 151.337892,244.342688 158.244794,245.990126 C158.403397,262.336599 152.734621,280.263999 152.734621,280.263999 C156.269932,289.39142 163.83171,281.573764 163.83171,281.573764 C172.135341,270.890998 175.174378,257.982656 176.325528,250.425929 C178.38225,250.998951 180.351996,251.495229 182.239883,252.068251 C183.805447,269.494257 176.980405,290.777928 176.980405,290.777928 C180.333823,299.235065 187.081964,293.075419 188.048238,292.132172 L188.16447,292.016065 C197.609018,279.685861 200.243873,264.475199 200.98061,257.824052 C202.218736,258.233353 202.873612,258.40219 202.873612,258.40219 C203.36477,258.560794 203.861043,258.719398 204.352201,258.893351 C203.942903,270.31286 201.226188,280.755161 201.226188,280.755161 C204.679639,288.32212 210.762829,281.323067 210.762829,281.323067 C214.953016,275.168197 217.255317,268.343097 218.488326,262.587296 C218.657162,262.587296 218.733905,262.587296 218.897624,262.669157 C220.212494,282.801668 212.655832,306.648589 212.655832,306.648589 C216.759043,317.326239 225.640807,308.203934 225.640807,308.203934 C237.392772,292.916528 240.191347,273.771456 240.764364,266.787752 C243.225267,267.273797 245.696403,267.606354 248.157307,268.015656 C247.58429,281.742601 243.225267,295.464429 243.225267,295.464429 C246.295684,303.214551 252.445748,297.576333 253.25211,296.790126 L253.340041,296.702566 C260.159967,287.738866 263.117144,277.21982 264.350154,270.230999 C265.997578,270.481697 267.721746,270.640301 269.36917,270.890998 C269.445913,288.230027 263.531559,306.725333 263.531559,306.725333 C267.394307,316.507636 275.447243,308.12719 275.447243,308.12719 C284.902024,295.79187 288.022921,280.837021 289.010352,273.029598 C289.41965,273.111458 289.834064,273.188202 290.161502,273.188202 C290.243362,289.468164 284.738305,306.807193 284.738305,306.807193 C288.268499,315.929498 295.835394,308.12719 295.835394,308.12719 C304.870645,296.375125 307.664103,282.064925 308.569674,274.9175 C312.350564,275.250058 316.049593,275.577499 319.748623,275.910056 C318.188175,287.411425 315.144022,296.94303 315.144022,296.94303 C318.761192,306.065335 326.328086,298.181167 326.328086,298.181167 C331.500588,291.437927 334.626601,283.794224 336.519604,277.13796 C339.389805,277.388657 342.101404,277.547262 344.818118,277.716098 C345.625356,294.382441 339.720587,313.510529 339.484074,314.268986 L339.476781,314.292292 C343.006975,323.414597 350.57387,315.520196 350.57387,315.520196 C361.502123,301.378834 363.395126,283.303062 363.635588,278.867258 C365.364872,279.025863 367.089039,279.107723 368.654604,279.1947 C369.39134,292.834668 365.610451,307.543936 365.610451,307.543936 C369.063902,315.110895 375.065232,308.12719 375.065232,308.12719 C381.967017,298.09419 383.778161,286.183521 384.269318,279.936558 C385.829766,280.013302 386.980916,280.095163 387.804628,280.095163 C389.446936,301.711391 381.230281,327.681564 381.230281,327.681564 C385.589304,339.03456 395.033852,329.252258 395.033852,329.252258 C409.99369,309.856489 411.2267,284.612826 411.313676,282.56632 C412.37785,282.724924 413.447141,282.893761 414.516432,283.052365 C414.434572,295.464429 411.313676,307.543936 411.313676,307.543936 C414.76201,315.110895 420.8452,308.12719 420.8452,308.12719 C425.940959,300.729068 428.238143,292.25653 429.307434,285.850963 C429.803708,285.932823 430.136262,286.009567 430.622303,286.183521 C433.093439,304.018828 425.61352,327.272262 425.61352,327.272262 C429.230691,336.394567 436.787353,328.592259 436.787353,328.592259 C448.293739,313.632294 449.772328,294.395129 449.859304,291.356067 C451.092314,291.765368 452.243464,292.174669 453.389498,292.507227 C452.570902,301.880228 450.601156,309.523931 450.601156,309.523931 C454.049491,317.080658 460.050821,310.091837 460.050821,310.091837 C462.348006,306.725333 464.077289,303.108132 465.392159,299.572792 C465.552603,315.602364 460.190138,332.899661 459.975575,333.585141 L459.968962,333.606201 C463.394933,342.525701 470.602163,335.387923 471.044694,334.93788 L471.06605,334.915965 C478.540853,325.220639 481.830585,313.632294 483.145454,305.90673 C484.460324,306.725333 485.611474,307.385332 486.680765,308.12719 C486.189607,322.263437 479.528284,338.205725 479.528284,338.205725 C481.748725,346.018265 488.568651,340.093628 488.568651,340.093628 C495.802991,332.286204 499.338302,322.503901 500.98061,316.256939 C504.188482,316.011358 505.830789,313.222993 505.830789,313.222993 C546.929413,240.976184 493.996964,183.438643 493.996964,183.438643 C480.679434,146.944309 419.448471,119.49042 419.448471,119.49042 C396.190119,86.7770075 326.568549,68.1179811 326.568549,68.1179811 C300.737504,62.6241846 268.412568,33.7637379 266.49632,32.0370556 L266.406876,31.9562048 C234.103041,7.62323809 190.707233,20.9459978 190.707233,20.9459978 C190.589559,20.8846026 190.487235,20.8232074 190.369562,20.7566959 C224.341286,7.4032386 261.295769,1.70530257e-13 300,1.70530257e-13 Z M356.243669,131.323834 C356.243669,131.323834 379.420161,123.680131 402.678514,140.036837 C402.678514,140.036837 430.05031,156.807961 462.436005,175.461871 C462.436005,175.461871 489.802684,196.019033 472.300084,214.672943 C472.300084,214.672943 458.655115,218.858049 431.943312,205.550638 C431.943312,205.550638 404.571516,190.339976 375.639272,182.286971 C375.639272,182.286971 358.540853,176.613031 356.243669,165.188407 L356.243669,165.188407 L348.267476,142.344274 C348.267476,142.344274 349.096304,132.720575 356.243669,131.323834 Z M146.486178,65.0809649 C146.486178,65.0809649 218.077494,73.4665268 255.722667,137.409634 C255.722667,137.409634 272.161093,160.673301 246.60044,175.464429 C246.60044,175.464429 169.749646,223.055946 128.241725,194.118339 C128.241725,194.118339 78.7627266,152.620296 107.367532,96.7301937 C107.367532,96.7301937 119.528796,73.4665268 146.486178,65.0809649 Z" id="Path" fill="#2FC193"></path>
        <path d="M840,420 L840,228.9 L903,228.9 L903,175 L721,175 L721,228.9 L784,228.9 L784,420 L840,420 Z M973.25,420 L973.25,324.45 C973.25,299.6 986.55,288.4 1005.8,288.4 C1022.6,288.4 1036.25,298.55 1036.25,320.25 L1036.25,420 L1088.75,420 L1088.75,312.55 C1088.75,265.3 1058.65,240.1 1023.3,240.1 C1000.2,240.1 982.7,248.5 973.25,261.45 L973.25,175 L920.75,175 L920.75,420 L973.25,420 Z M1208,424.9 C1241.25,424.9 1267.15,412.65 1284.3,388.85 L1242.3,364.7 C1235.3,372.4 1223.05,378 1208.7,378 C1189.45,378 1173.35,371.7 1166.7,353.5 L1290.95,353.5 C1292.35,346.85 1293.05,339.85 1293.05,332.5 C1293.05,279.65 1255.25,240.1 1204.15,240.1 C1148.85,240.1 1111.05,280.35 1111.05,332.5 C1111.05,384.65 1148.15,424.9 1208,424.9 Z M1240.9,314.3 L1165.65,314.3 C1170.55,296.45 1183.85,286.65 1203.8,286.65 C1219.55,286.65 1235.3,294 1240.9,314.3 Z M1370.3,420 L1370.3,321.3 C1370.3,300.65 1380.1,288.4 1397.6,288.4 C1414.4,288.4 1422.8,299.6 1422.8,317.1 L1422.8,420 L1475.3,420 L1475.3,321.3 C1475.3,300.65 1485.1,288.4 1502.6,288.4 C1519.4,288.4 1527.8,299.6 1527.8,317.1 L1527.8,420 L1580.3,420 L1580.3,312.55 C1580.3,268.8 1554.05,240.1 1513.8,240.1 C1488.95,240.1 1472.85,249.2 1463.05,263.2 C1453.25,248.5 1437.85,240.1 1417.2,240.1 C1393.75,240.1 1378.35,249.2 1370.3,261.1 L1370.3,245 L1317.8,245 L1317.8,420 L1370.3,420 Z M1695.35,424.9 C1746.8,424.9 1788.1,384.65 1788.1,332.5 C1788.1,280.35 1746.8,240.1 1695.35,240.1 C1643.9,240.1 1602.6,280.35 1602.6,332.5 C1602.6,384.65 1643.9,424.9 1695.35,424.9 Z M1695.35,373.8 C1672.6,373.8 1655.1,357.35 1655.1,332.5 C1655.1,307.65 1672.6,291.2 1695.35,291.2 C1718.1,291.2 1735.6,307.65 1735.6,332.5 C1735.6,357.35 1718.1,373.8 1695.35,373.8 Z M1872.35,424.9 C1910.15,424.9 1945.15,407.75 1945.15,367.5 C1945.15,302.75 1859.05,316.05 1859.05,296.1 C1859.05,289.8 1864.65,286.3 1873.75,286.3 C1885.3,286.3 1892.3,292.6 1897.2,301.7 L1942,277.55 C1927.3,252.7 1902.1,240.1 1873.75,240.1 C1837.35,240.1 1805.15,259.35 1805.15,297.5 C1805.15,358.05 1891.25,347.9 1891.25,367.15 C1891.25,374.15 1884.95,378 1872.35,378 C1856.95,378 1847.15,370.65 1842.6,357.35 L1797.1,383.25 C1810.75,411.6 1837.35,424.9 1872.35,424.9 Z M2039.55,424.9 C2063,424.9 2080.15,416.85 2091.7,403.55 L2091.7,420 L2144.2,420 L2144.2,245 L2091.7,245 L2091.7,261.45 C2080.15,248.15 2063,240.1 2039.55,240.1 C1993.7,240.1 1955.9,280.35 1955.9,332.5 C1955.9,384.65 1993.7,424.9 2039.55,424.9 Z M2050.05,375.2 C2025.9,375.2 2008.4,358.75 2008.4,332.5 C2008.4,306.25 2025.9,289.8 2050.05,289.8 C2074.2,289.8 2091.7,306.25 2091.7,332.5 C2091.7,358.75 2074.2,375.2 2050.05,375.2 Z M2240.7,424.9 C2263.8,424.9 2281.3,416.5 2290.75,403.55 L2290.75,420 L2343.25,420 L2343.25,245 L2290.75,245 L2290.75,340.55 C2290.75,365.4 2277.45,376.6 2258.2,376.6 C2241.4,376.6 2227.75,366.45 2227.75,344.75 L2227.75,245 L2175.25,245 L2175.25,352.45 C2175.25,399.7 2205.35,424.9 2240.7,424.9 Z M2429.25,420 L2429.25,340.9 C2429.25,306.25 2460.05,297.5 2481.75,301 L2481.75,241.5 C2459.7,241.5 2436.25,252.7 2429.25,276.15 L2429.25,245 L2376.75,245 L2376.75,420 L2429.25,420 Z M2564.25,424.9 C2587.35,424.9 2604.85,416.5 2614.3,403.55 L2614.3,420 L2666.8,420 L2666.8,245 L2614.3,245 L2614.3,340.55 C2614.3,365.4 2601,376.6 2581.75,376.6 C2564.95,376.6 2551.3,366.45 2551.3,344.75 L2551.3,245 L2498.8,245 L2498.8,352.45 C2498.8,399.7 2528.9,424.9 2564.25,424.9 Z M2761.55,424.9 C2799.35,424.9 2834.35,407.75 2834.35,367.5 C2834.35,302.75 2748.25,316.05 2748.25,296.1 C2748.25,289.8 2753.85,286.3 2762.95,286.3 C2774.5,286.3 2781.5,292.6 2786.4,301.7 L2831.2,277.55 C2816.5,252.7 2791.3,240.1 2762.95,240.1 C2726.55,240.1 2694.35,259.35 2694.35,297.5 C2694.35,358.05 2780.45,347.9 2780.45,367.15 C2780.45,374.15 2774.15,378 2761.55,378 C2746.15,378 2736.35,370.65 2731.8,357.35 L2686.3,383.25 C2699.95,411.6 2726.55,424.9 2761.55,424.9 Z" id="Themosaurus" fill="#0D293B" fill-rule="nonzero"></path>
    </g>
</svg>